<svg width="40" height="40" viewBox="0 0 40 40" fill="none" xmlns="http://www.w3.org/2000/svg">
  <defs>
    <linearGradient id="shieldGrad" x1="0%" y1="0%" x2="100%" y2="100%">
      <stop offset="0%" style="stop-color:#1e3a8a;stop-opacity:1" />
      <stop offset="100%" style="stop-color:#3b82f6;stop-opacity:1" />
    </linearGradient>
    <linearGradient id="coinGrad" x1="0%" y1="0%" x2="100%" y2="100%">
      <stop offset="0%" style="stop-color:#fbbf24;stop-opacity:1" />
      <stop offset="100%" style="stop-color:#f59e0b;stop-opacity:1" />
    </linearGradient>
  </defs>
  
  <!-- Shield background -->
  <path d="M20 2 L35 7 L35 22 C35 29 28 36 20 38 C12 36 5 29 5 22 L5 7 Z" 
        fill="url(#shieldGrad)" stroke="#fff" stroke-width="1"/>
  
  <!-- Central crypto coin -->
  <circle cx="20" cy="18" r="9" fill="url(#coinGrad)" stroke="#fff" stroke-width="1.5"/>
  
  <!-- Bitcoin symbol -->
  <text x="20" y="24" font-family="Arial Black, sans-serif" font-size="10" font-weight="900" 
        fill="#fff" text-anchor="middle">₿</text>
  
  <!-- Network nodes around shield -->
  <circle cx="10" cy="10" r="3" fill="#10b981" stroke="#fff" stroke-width="1"/>
  <circle cx="30" cy="10" r="3" fill="#10b981" stroke="#fff" stroke-width="1"/>
  <circle cx="10" cy="30" r="3" fill="#10b981" stroke="#fff" stroke-width="1"/>
  <circle cx="30" cy="30" r="3" fill="#10b981" stroke="#fff" stroke-width="1"/>
  
  <!-- Connection lines -->
  <line x1="13" y1="10" x2="16" y2="14" stroke="#fff" stroke-width="1.5" opacity="0.7"/>
  <line x1="27" y1="10" x2="24" y2="14" stroke="#fff" stroke-width="1.5" opacity="0.7"/>
  <line x1="13" y1="28" x2="16" y2="24" stroke="#fff" stroke-width="1.5" opacity="0.7"/>
  <line x1="27" y1="28" x2="24" y2="24" stroke="#fff" stroke-width="1.5" opacity="0.7"/>
</svg>
